<?xml version="1.0" encoding="UTF-8" standalone="no"?>
<!DOCTYPE svg PUBLIC "-//W3C//DTD SVG 1.1//EN" "http://www.w3.org/Graphics/SVG/1.1/DTD/svg11.dtd">
<svg width="100%" height="100%" viewBox="0 0 366 512" version="1.1" xmlns="http://www.w3.org/2000/svg" xmlns:xlink="http://www.w3.org/1999/xlink" xml:space="preserve" xmlns:serif="http://www.serif.com/" style="fill-rule:evenodd;clip-rule:evenodd;stroke-linejoin:round;stroke-miterlimit:2;">
    <g transform="matrix(1,0,0,1,-1177,0)">
        <g id="Medal" transform="matrix(1,0,0,1,1104,0)">
            <rect x="0" y="0" width="512" height="512" style="fill:none;"/>
            <g transform="matrix(1,0,0,1,-1104,0)">
                <circle cx="1360" cy="256" r="156"/>
            </g>
            <g transform="matrix(1,0,0,1,-1104,0)">
                <path d="M1360,73L1489.401,126.599L1543,256L1489.401,385.401L1360,439L1230.599,385.401L1177,256L1230.599,126.599L1360,73ZM1360.271,370.923L1398.475,360.148C1398.802,360.056 1399.06,359.803 1399.16,359.478L1409.689,325.018C1409.77,324.754 1409.956,324.535 1410.203,324.413C1410.451,324.291 1410.738,324.277 1410.996,324.374L1433.338,332.752C1433.735,332.901 1434.182,332.783 1434.455,332.459L1470.43,289.678C1470.755,289.291 1470.74,288.722 1470.395,288.352L1443.602,259.645C1443.219,259.234 1443.026,258.681 1443.071,258.12L1449.876,173.546C1449.949,172.636 1449.397,171.792 1448.533,171.495L1360.651,141.224C1360.229,141.079 1359.771,141.079 1359.349,141.224L1271.467,171.495C1270.603,171.792 1270.051,172.636 1270.124,173.546L1276.929,258.12C1276.974,258.681 1276.781,259.234 1276.398,259.645L1249.605,288.352C1249.26,288.722 1249.245,289.291 1249.57,289.678L1285.545,332.459C1285.818,332.783 1286.265,332.901 1286.662,332.752L1309.004,324.374C1309.262,324.277 1309.549,324.291 1309.797,324.413C1310.044,324.535 1310.23,324.754 1310.311,325.018L1320.84,359.478C1320.94,359.803 1321.198,360.056 1321.525,360.148L1359.729,370.923C1359.906,370.974 1360.094,370.974 1360.271,370.923ZM1311,252C1323.694,252 1334,262.306 1334,275C1334,287.694 1323.694,298 1311,298C1298.306,298 1288,287.694 1288,275C1288,262.306 1298.306,252 1311,252ZM1409,252C1421.694,252 1432,262.306 1432,275C1432,287.694 1421.694,298 1409,298C1396.306,298 1386,287.694 1386,275C1386,262.306 1396.306,252 1409,252ZM1361.675,300.569L1374.114,319.641C1374.63,320.433 1374.521,321.479 1373.853,322.147L1369.58,326.42C1369.178,326.822 1368.623,327.034 1368.055,327.003C1367.487,326.971 1366.959,326.699 1366.604,326.255L1361.562,319.952C1361.182,319.478 1360.608,319.202 1360,319.202C1359.392,319.202 1358.818,319.478 1358.438,319.952L1353.396,326.255C1353.041,326.699 1352.513,326.971 1351.945,327.003C1351.377,327.034 1350.822,326.822 1350.42,326.42L1346.147,322.147C1345.479,321.479 1345.37,320.433 1345.886,319.641L1358.325,300.569C1358.694,300.003 1359.324,299.661 1360,299.661C1360.676,299.661 1361.306,300.003 1361.675,300.569ZM1247,75.806L1247,0L1360,23L1473,0L1473,75.806L1360,29L1247,75.806ZM1247,436.194L1360,483L1473,436.194L1473,512L1360,489L1247,512L1247,436.194Z" style="fill:url(#_Linear1);"/>
            </g>
        </g>
    </g>
    <defs>
        <linearGradient id="_Linear1" x1="0" y1="0" x2="1" y2="0" gradientUnits="userSpaceOnUse" gradientTransform="matrix(285,472,-472,285,1246,8)"><stop offset="0" style="stop-color:rgb(255,252,90);stop-opacity:1"/><stop offset="1" style="stop-color:rgb(173,153,106);stop-opacity:1"/></linearGradient>
    </defs>
</svg>
